<svg aria-hidden="true" style="width:0;height:0;position:absolute;overflow:hidden" xmlns="http://www.w3.org/2000/svg"><defs><symbol id="icon-header-logo" viewBox="0 0 32 32"><path stroke-linejoin="round" stroke-linecap="round" stroke-width="2.667" d="M26.427 2.667H5.574a2.907 2.907 0 0 0-2.907 2.907v20.853a2.907 2.907 0 0 0 2.907 2.907h20.853a2.907 2.907 0 0 0 2.907-2.907V5.574a2.907 2.907 0 0 0-2.907-2.907zm-17.094 0v26.667M22.667 2.667v26.667M2.667 16h26.667M2.667 9.333h6.667M2.667 22.667h6.667m13.333 0h6.667M22.667 9.333h6.667"/></symbol><symbol id="icon-search" viewBox="0 0 32 32"><path stroke-linejoin="round" stroke-linecap="round" stroke-width="2.667" d="M14.667 25.333c5.891 0 10.667-4.776 10.667-10.667S20.558 3.999 14.667 3.999 4 8.775 4 14.666s4.776 10.667 10.667 10.667zM28 28.001l-5.8-5.8"/></symbol><symbol id="icon-popcorn-loader" viewBox="0 0 32 32"><path fill="#f4e6c8" style="fill:var(--color1,#f4e6c8)" stroke-miterlimit="10" stroke-width=".56" stroke="#000" d="M26.848 8.576c0-.64-.416-1.184-.96-1.408-.224-.704-.8-1.28-1.536-1.44A2.066 2.066 0 0 0 22.304 4c-.928 0-1.728.608-2.016 1.472a2.228 2.228 0 0 0-.8-.16c-.192 0-.384.032-.576.096a2.126 2.126 0 0 0-1.856-1.088c-.256 0-.48.032-.704.128a2.097 2.097 0 0 0-1.888-1.216c-1.12 0-2.016.864-2.08 1.952-.288-.128-.608-.224-.928-.224-.192 0-.352.032-.512.064a2.091 2.091 0 0 0-1.568-.736A2.11 2.11 0 0 0 7.264 6.4c0 .096 0 .224.032.32-.448 0-.864.16-1.216.416-.512.384-.864.992-.864 1.696s.32 1.312.864 1.696c.224.16.512.288.8.352h18.912c.128-.256.224-.576.256-.896.416-.256.8-.8.8-1.408z"/><path stroke-miterlimit="10" stroke-width=".56" d="M13.632 9.408c-.608-.608-.576-1.76.064-2.336s1.792-.48 2.336.192c.384.48.352 1.312-.096 1.76"/><path stroke-miterlimit="10" stroke-width=".56" d="M16.32 8c.288-.48.896-.704 1.44-.544.512.16.928.704.896 1.248"/><path fill="#f4e6c8" style="fill:var(--color1,#f4e6c8)" stroke-miterlimit="10" stroke-width=".56" stroke="#000" d="M24.32 5.728c-.288 0-2.336-.16-2.304 1.92"/><path fill="#e15c64" style="fill:var(--color2,#e15c64)" stroke-miterlimit="10" stroke-width=".56" stroke="#000" d="M11.712 28.8h-2.24a.934.934 0 0 1-.928-.832l-1.76-17.152h3.808l1.12 17.984z"/><path fill="#fff" style="fill:var(--color3,#fff)" stroke-miterlimit="10" stroke-width=".56" stroke="#000" d="M14.784 28.8h-3.072l-1.088-17.984H14.4z"/><path fill="#e15c64" style="fill:var(--color2,#e15c64)" stroke-miterlimit="10" stroke-width=".56" stroke="#000" d="M17.856 28.8h-3.072L14.4 10.816h3.808z"/><path fill="#fff" style="fill:var(--color3,#fff)" stroke-miterlimit="10" stroke-width=".56" stroke="#000" d="M20.896 28.8h-3.04l.352-17.984h3.808z"/><path fill="#e15c64" style="fill:var(--color2,#e15c64)" stroke-miterlimit="10" stroke-width=".56" stroke="#000" d="M23.136 28.8h-2.24l1.088-17.984h3.808l-1.76 17.152a.882.882 0 0 1-.896.832z"/><path fill="#f7b26a" style="fill:var(--color4,#f7b26a)" stroke-miterlimit="10" stroke-width=".56" stroke="#000" d="M18.208 21.344h-3.84c-.896 0-1.6-.704-1.6-1.6v-1.44c0-.896.704-1.6 1.6-1.6h3.84c.896 0 1.6.704 1.6 1.6v1.44c0 .896-.704 1.6-1.6 1.6z"/></symbol><symbol id="icon-moon" viewBox="0 0 32 32"><path d="M16 28q-5 0-8.5-3.5T4 16t3.5-8.5T16 4q.267 0 .567.017t.767.05q-1.2 1.067-1.867 2.633T14.8 10q0 3 2.1 5.1t5.1 2.1q1.733 0 3.3-.617t2.633-1.717q.033.4.05.65t.017.483q0 5-3.5 8.5t-8.5 3.5zm0-2q3.633 0 6.333-2.25t3.367-5.283q-.833.367-1.783.55T22 19.2q-3.833 0-6.517-2.683T12.8 10q0-.8.167-1.717t.6-2.083Q10.3 7.1 8.15 9.85T6 16q0 4.167 2.917 7.083T16 26z"/></symbol><symbol id="icon-sun" viewBox="0 0 32 32"><path d="M16 20.667q1.933 0 3.3-1.367t1.367-3.3-1.367-3.3-3.3-1.367-3.3 1.367-1.367 3.3 1.367 3.3 3.3 1.367zm0 2q-2.767 0-4.717-1.95T9.333 16t1.95-4.717T16 9.333t4.717 1.95T22.667 16t-1.95 4.717T16 22.667zM2.333 17q-.433 0-.717-.283T1.333 16t.283-.717.717-.283h3.333q.433 0 .717.283t.283.717-.283.717-.717.283zm24 0q-.433 0-.717-.283T25.333 16t.283-.717.717-.283h3.333q.433 0 .717.283t.283.717-.283.717-.717.283zM16 6.667q-.433 0-.717-.283T15 5.667V2.334q0-.433.283-.717T16 1.334t.717.283.283.717v3.333q0 .433-.283.717T16 6.667zm0 24q-.433 0-.717-.283T15 29.667v-3.333q0-.433.283-.717t.717-.283.717.283.283.717v3.333q0 .433-.283.717t-.717.283zM8 9.4 6.1 7.533q-.3-.3-.283-.717t.283-.717q.3-.3.717-.3t.717.3l1.867 1.9q.267.3.267.7t-.267.667q-.267.3-.683.3t-.717-.267zm16.467 16.5L22.6 24q-.267-.3-.267-.717t.3-.683q.267-.3.667-.3t.7.3l1.9 1.867q.3.3.283.717t-.283.717q-.3.3-.717.3t-.717-.3zM22.6 9.4q-.3-.3-.3-.7t.3-.7l1.867-1.9q.3-.3.717-.283t.717.283q.3.3.3.717t-.3.717l-1.9 1.867q-.267.267-.683.267t-.717-.267zM6.1 25.9q-.3-.3-.3-.717t.3-.717L8 22.599q.3-.3.7-.3t.7.3.3.7-.3.7l-1.867 1.9q-.3.3-.717.283t-.717-.283z"/></symbol></defs></svg>