<svg aria-hidden="true" style="position: absolute; width: 0; height: 0; overflow: hidden;" version="1.1" xmlns="http://www.w3.org/2000/svg" xmlns:xlink="http://www.w3.org/1999/xlink">
<defs>
<symbol id="icon-header-logo" viewBox="0 0 32 32">
<path stroke-linejoin="round" stroke-linecap="round" stroke-miterlimit="4" stroke-width="2.6667" d="M26.427 2.667h-20.853c-1.605 0-2.907 1.301-2.907 2.907v20.853c0 1.605 1.301 2.907 2.907 2.907h20.853c1.605 0 2.907-1.301 2.907-2.907v-20.853c0-1.605-1.301-2.907-2.907-2.907zM9.333 2.667v26.667M22.667 2.667v26.667M2.667 16h26.667M2.667 9.333h6.667M2.667 22.667h6.667M22.667 22.667h6.667M22.667 9.333h6.667"></path>
</symbol>
<symbol id="icon-search" viewBox="0 0 32 32">
<path  stroke-linejoin="round" stroke-linecap="round" stroke-miterlimit="4" stroke-width="2.6667" d="M14.667 25.333c5.891 0 10.667-4.776 10.667-10.667s-4.776-10.667-10.667-10.667-10.667 4.776-10.667 10.667 4.776 10.667 10.667 10.667zM28 28.001l-5.8-5.8"></path>
</symbol>
<symbol id="icon-popcorn-loader" viewBox="0 0 32 32">
<path fill="#f4e6c8" style="fill: var(--color1, #f4e6c8)" stroke-linejoin="miter" stroke-linecap="butt" stroke-miterlimit="10" stroke-width="0.56" stroke="#000" d="M26.848 8.576c0-0.64-0.416-1.184-0.96-1.408-0.224-0.704-0.8-1.28-1.536-1.44-0.16-0.992-1.024-1.728-2.048-1.728-0.928 0-1.728 0.608-2.016 1.472-0.256-0.096-0.512-0.16-0.8-0.16-0.192 0-0.384 0.032-0.576 0.096-0.352-0.64-1.056-1.088-1.856-1.088-0.256 0-0.48 0.032-0.704 0.128-0.32-0.704-1.056-1.216-1.888-1.216-1.12 0-2.016 0.864-2.080 1.952-0.288-0.128-0.608-0.224-0.928-0.224-0.192 0-0.352 0.032-0.512 0.064-0.384-0.448-0.96-0.736-1.568-0.736-1.152 0-2.112 0.928-2.112 2.112 0 0.096 0 0.224 0.032 0.32-0.448 0-0.864 0.16-1.216 0.416-0.512 0.384-0.864 0.992-0.864 1.696s0.32 1.312 0.864 1.696c0.224 0.16 0.512 0.288 0.8 0.352h18.912c0.128-0.256 0.224-0.576 0.256-0.896 0.416-0.256 0.8-0.8 0.8-1.408z"></path>
<path stroke-linejoin="miter" stroke-linecap="butt" stroke-miterlimit="10" stroke-width="0.56" d="M13.632 9.408c-0.608-0.608-0.576-1.76 0.064-2.336s1.792-0.48 2.336 0.192c0.384 0.48 0.352 1.312-0.096 1.76"></path>
<path stroke-linejoin="miter" stroke-linecap="butt" stroke-miterlimit="10" stroke-width="0.56" d="M16.32 8c0.288-0.48 0.896-0.704 1.44-0.544 0.512 0.16 0.928 0.704 0.896 1.248"></path>
<path fill="#f4e6c8" style="fill: var(--color1, #f4e6c8)" stroke-linejoin="miter" stroke-linecap="butt" stroke-miterlimit="10" stroke-width="0.56" stroke="#000" d="M24.32 5.728c-0.288 0-2.336-0.16-2.304 1.92"></path>
<path fill="#e15c64" style="fill: var(--color2, #e15c64)" stroke-linejoin="miter" stroke-linecap="butt" stroke-miterlimit="10" stroke-width="0.56" stroke="#000" d="M11.712 28.8h-2.24c-0.48 0-0.864-0.352-0.928-0.832l-1.76-17.152h3.808l1.12 17.984z"></path>
<path fill="#fff" style="fill: var(--color3, #fff)" stroke-linejoin="miter" stroke-linecap="butt" stroke-miterlimit="10" stroke-width="0.56" stroke="#000" d="M14.784 28.8h-3.072l-1.088-17.984h3.776z"></path>
<path fill="#e15c64" style="fill: var(--color2, #e15c64)" stroke-linejoin="miter" stroke-linecap="butt" stroke-miterlimit="10" stroke-width="0.56" stroke="#000" d="M17.856 28.8h-3.072l-0.384-17.984h3.808z"></path>
<path fill="#fff" style="fill: var(--color3, #fff)" stroke-linejoin="miter" stroke-linecap="butt" stroke-miterlimit="10" stroke-width="0.56" stroke="#000" d="M20.896 28.8h-3.040l0.352-17.984h3.808z"></path>
<path fill="#e15c64" style="fill: var(--color2, #e15c64)" stroke-linejoin="miter" stroke-linecap="butt" stroke-miterlimit="10" stroke-width="0.56" stroke="#000" d="M23.136 28.8h-2.24l1.088-17.984h3.808l-1.76 17.152c-0.032 0.48-0.416 0.832-0.896 0.832z"></path>
<path fill="#f7b26a" style="fill: var(--color4, #f7b26a)" stroke-linejoin="miter" stroke-linecap="butt" stroke-miterlimit="10" stroke-width="0.56" stroke="#000" d="M18.208 21.344h-3.84c-0.896 0-1.6-0.704-1.6-1.6v-1.44c0-0.896 0.704-1.6 1.6-1.6h3.84c0.896 0 1.6 0.704 1.6 1.6v1.44c0 0.896-0.704 1.6-1.6 1.6z"></path>
</symbol>
<symbol id="icon-moon" viewBox="0 0 32 32">
<path d="M16 28q-5 0-8.5-3.5t-3.5-8.5 3.5-8.5 8.5-3.5q0.267 0 0.567 0.017t0.767 0.050q-1.2 1.067-1.867 2.633t-0.667 3.3q0 3 2.1 5.1t5.1 2.1q1.733 0 3.3-0.617t2.633-1.717q0.033 0.4 0.050 0.65t0.017 0.483q0 5-3.5 8.5t-8.5 3.5zM16 26q3.633 0 6.333-2.25t3.367-5.283q-0.833 0.367-1.783 0.55t-1.917 0.183q-3.833 0-6.517-2.683t-2.683-6.517q0-0.8 0.167-1.717t0.6-2.083q-3.267 0.9-5.417 3.65t-2.15 6.15q0 4.167 2.917 7.083t7.083 2.917z"></path>
</symbol>
<symbol id="icon-sun" viewBox="0 0 32 32">
<path d="M16 20.667q1.933 0 3.3-1.367t1.367-3.3-1.367-3.3-3.3-1.367-3.3 1.367-1.367 3.3 1.367 3.3 3.3 1.367zM16 22.667q-2.767 0-4.717-1.95t-1.95-4.717 1.95-4.717 4.717-1.95 4.717 1.95 1.95 4.717-1.95 4.717-4.717 1.95zM2.333 17q-0.433 0-0.717-0.283t-0.283-0.717 0.283-0.717 0.717-0.283h3.333q0.433 0 0.717 0.283t0.283 0.717-0.283 0.717-0.717 0.283zM26.333 17q-0.433 0-0.717-0.283t-0.283-0.717 0.283-0.717 0.717-0.283h3.333q0.433 0 0.717 0.283t0.283 0.717-0.283 0.717-0.717 0.283zM16 6.667q-0.433 0-0.717-0.283t-0.283-0.717v-3.333q0-0.433 0.283-0.717t0.717-0.283 0.717 0.283 0.283 0.717v3.333q0 0.433-0.283 0.717t-0.717 0.283zM16 30.667q-0.433 0-0.717-0.283t-0.283-0.717v-3.333q0-0.433 0.283-0.717t0.717-0.283 0.717 0.283 0.283 0.717v3.333q0 0.433-0.283 0.717t-0.717 0.283zM8 9.4l-1.9-1.867q-0.3-0.3-0.283-0.717t0.283-0.717q0.3-0.3 0.717-0.3t0.717 0.3l1.867 1.9q0.267 0.3 0.267 0.7t-0.267 0.667q-0.267 0.3-0.683 0.3t-0.717-0.267zM24.467 25.9l-1.867-1.9q-0.267-0.3-0.267-0.717t0.3-0.683q0.267-0.3 0.667-0.3t0.7 0.3l1.9 1.867q0.3 0.3 0.283 0.717t-0.283 0.717q-0.3 0.3-0.717 0.3t-0.717-0.3zM22.6 9.4q-0.3-0.3-0.3-0.7t0.3-0.7l1.867-1.9q0.3-0.3 0.717-0.283t0.717 0.283q0.3 0.3 0.3 0.717t-0.3 0.717l-1.9 1.867q-0.267 0.267-0.683 0.267t-0.717-0.267zM6.1 25.9q-0.3-0.3-0.3-0.717t0.3-0.717l1.9-1.867q0.3-0.3 0.7-0.3t0.7 0.3 0.3 0.7-0.3 0.7l-1.867 1.9q-0.3 0.3-0.717 0.283t-0.717-0.283z"></path>
</symbol>
</defs>
</svg>
