<svg aria-hidden="true" style="position: absolute; width: 0; height: 0; overflow: hidden;" version="1.1" xmlns="http://www.w3.org/2000/svg" xmlns:xlink="http://www.w3.org/1999/xlink">
<defs>
<symbol id="icon-youtube" viewBox="0 0 32 32">
<path fill="#ed0000" style="fill: var(--color1, #ed0000)" d="M24.772 1.625h-23.147v28.75h28.75v-23.147z"></path>
<path fill="#000" style="fill: var(--color2, #000)" d="M24.772 1.625v5.603h5.603z"></path>
<path fill="#fff" style="fill: var(--color3, #fff)" d="M20.927 18.975c-0.139 0-0.24 0.039-0.301 0.122-0.061 0.078-0.090 0.213-0.090 0.399v0.449h0.774v-0.449c0-0.187-0.031-0.321-0.093-0.399-0.058-0.083-0.157-0.122-0.29-0.122z"></path>
<path fill="#fff" style="fill: var(--color3, #fff)" d="M17.91 18.96c-0.063 0-0.125 0.013-0.186 0.043s-0.121 0.075-0.18 0.136v2.773c0.071 0.071 0.14 0.126 0.208 0.157 0.067 0.032 0.137 0.048 0.211 0.048 0.107 0 0.186-0.031 0.236-0.095 0.050-0.062 0.077-0.163 0.077-0.306v-2.298c0-0.15-0.031-0.265-0.093-0.342-0.064-0.078-0.156-0.116-0.273-0.116z"></path>
<path fill="#fff" style="fill: var(--color3, #fff)" d="M22.773 15.51c-0.719-0.718-6.776-0.728-6.776-0.727 0-0.001-6.056 0.009-6.777 0.726-0.721 0.72-0.722 4.269-0.722 4.289 0 0.027 0.002 3.57 0.722 4.29 0.721 0.717 6.777 0.733 6.777 0.733s6.057-0.016 6.776-0.733c0.723-0.721 0.73-4.29 0.73-4.29-0.001-0.019-0.009-3.569-0.73-4.288zM13.117 17.602h-1.020v5.156h-0.987v-5.156h-1.020v-0.876h3.026v0.876zM16 22.757h-0.873v-0.489c-0.163 0.181-0.33 0.319-0.506 0.412-0.175 0.096-0.344 0.141-0.508 0.141-0.203 0-0.353-0.065-0.458-0.199-0.101-0.133-0.153-0.33-0.153-0.596v-3.721h0.874v3.414c0 0.106 0.019 0.182 0.054 0.229 0.039 0.048 0.098 0.071 0.179 0.071 0.064 0 0.146-0.031 0.245-0.094s0.188-0.142 0.272-0.238v-3.381h0.874v4.451zM19.176 21.838c0 0.315-0.069 0.556-0.206 0.724-0.136 0.168-0.335 0.251-0.595 0.251-0.172 0-0.324-0.031-0.457-0.096-0.134-0.065-0.26-0.164-0.374-0.301v0.341h-0.884v-6.033h0.884v1.943c0.119-0.135 0.243-0.24 0.375-0.309 0.134-0.071 0.268-0.106 0.404-0.106 0.278 0 0.489 0.095 0.634 0.283 0.147 0.19 0.22 0.468 0.22 0.832v2.471zM22.21 20.641h-1.674v0.837c0 0.235 0.029 0.397 0.085 0.488 0.059 0.091 0.157 0.135 0.297 0.135 0.145 0 0.246-0.038 0.304-0.115 0.057-0.077 0.088-0.245 0.088-0.508v-0.203h0.9v0.229c0 0.457-0.109 0.8-0.329 1.032-0.218 0.23-0.546 0.344-0.982 0.344-0.392 0-0.701-0.121-0.926-0.367-0.225-0.244-0.339-0.58-0.339-1.010v-1.999c0-0.385 0.125-0.701 0.372-0.944s0.566-0.364 0.958-0.364c0.401 0 0.708 0.113 0.924 0.338 0.215 0.225 0.322 0.548 0.322 0.97v1.137z"></path>
<path fill="#fff" style="fill: var(--color3, #fff)" d="M20.924 12.916h-0.986v-0.542c-0.179 0.199-0.369 0.352-0.567 0.456-0.197 0.104-0.387 0.156-0.572 0.156-0.23 0-0.4-0.073-0.515-0.219s-0.173-0.365-0.173-0.657v-4.097h0.984v3.759c0 0.116 0.023 0.2 0.064 0.252 0.040 0.052 0.108 0.078 0.2 0.078 0.072 0 0.164-0.035 0.275-0.103 0.11-0.069 0.212-0.156 0.303-0.264v-3.722h0.986l0.001 4.903z"></path>
<path fill="#fff" style="fill: var(--color3, #fff)" d="M16.923 8.246c-0.261-0.238-0.596-0.356-1.003-0.356-0.447 0-0.804 0.113-1.069 0.338-0.266 0.225-0.399 0.527-0.398 0.908v2.541c0 0.417 0.13 0.748 0.387 0.995 0.259 0.246 0.605 0.369 1.035 0.369 0.448 0 0.799-0.119 1.056-0.358 0.254-0.239 0.382-0.568 0.382-0.987v-2.534c0-0.373-0.131-0.679-0.39-0.916zM16.309 11.768c0 0.13-0.039 0.234-0.118 0.31-0.079 0.074-0.185 0.112-0.318 0.112-0.131 0-0.231-0.036-0.301-0.11s-0.106-0.178-0.106-0.312v-2.67c0-0.107 0.039-0.194 0.113-0.26 0.076-0.066 0.173-0.098 0.294-0.098 0.129 0 0.235 0.033 0.315 0.098 0.081 0.066 0.121 0.153 0.121 0.26v2.67z"></path>
<path fill="#fff" style="fill: var(--color3, #fff)" d="M11.769 6.27h-1.117l1.32 4.013v2.633h1.11v-2.758l1.29-3.888h-1.128l-0.685 2.657h-0.069z"></path>
</symbol>
<symbol id="icon-icons8-youtube" viewBox="0 0 32 32">
<path fill="#ff3d00" style="fill: var(--color4, #ff3d00)" d="M28.8 22.6c-0.267 1.4-1.4 2.467-2.8 2.667-2.2 0.333-5.867 0.733-10 0.733-4.067 0-7.733-0.4-10-0.733-1.4-0.2-2.533-1.267-2.8-2.667-0.267-1.533-0.533-3.8-0.533-6.6s0.267-5.067 0.533-6.6c0.267-1.4 1.4-2.467 2.8-2.667 2.2-0.333 5.867-0.733 10-0.733s7.733 0.4 10 0.733c1.4 0.2 2.533 1.267 2.8 2.667 0.267 1.533 0.6 3.8 0.6 6.6-0.067 2.8-0.333 5.067-0.6 6.6z"></path>
<path fill="#fff" style="fill: var(--color3, #fff)" d="M13.333 20.667v-9.333l8 4.667z"></path>
</symbol>
</defs>
</svg>
