<?xml version="1.0" ?><svg enable-background="new 0 0 32 32" version="1.1" viewBox="0 0 32 32" xml:space="preserve" xmlns="http://www.w3.org/2000/svg" xmlns:xlink="http://www.w3.org/1999/xlink"><g id="Layer_4_copy_2"><g><polygon fill="#ED0000" points="24.772,1.625 1.625,1.625 1.625,30.375 30.375,30.375 30.375,7.228   "/><polygon points="24.772,1.625 24.772,7.228 30.375,7.228   "/></g><g><g><path d="M20.927,18.975c-0.139,0-0.24,0.039-0.301,0.122c-0.061,0.078-0.09,0.213-0.09,0.399v0.449h0.774v-0.449     c0-0.187-0.031-0.321-0.093-0.399C21.159,19.014,21.06,18.975,20.927,18.975z" fill="#FFFFFF"/><path d="M17.91,18.96c-0.063,0-0.125,0.013-0.186,0.043c-0.061,0.029-0.121,0.075-0.18,0.136v2.773     c0.071,0.071,0.14,0.126,0.208,0.157c0.067,0.032,0.137,0.048,0.211,0.048c0.107,0,0.186-0.031,0.236-0.095     c0.05-0.062,0.077-0.163,0.077-0.306v-2.298c0-0.15-0.031-0.265-0.093-0.342C18.119,18.998,18.027,18.96,17.91,18.96z" fill="#FFFFFF"/><path d="M22.773,15.51c-0.719-0.718-6.776-0.728-6.776-0.727c0-0.001-6.056,0.009-6.777,0.726     c-0.721,0.72-0.722,4.269-0.722,4.289c0,0.027,0.002,3.57,0.722,4.29c0.721,0.717,6.777,0.733,6.777,0.733     s6.057-0.016,6.776-0.733c0.723-0.721,0.73-4.29,0.73-4.29C23.502,19.779,23.494,16.229,22.773,15.51z M13.117,17.602h-1.02     v5.156H11.11v-5.156h-1.02v-0.876h3.026V17.602z M16,22.757h-0.873v-0.489c-0.163,0.181-0.33,0.319-0.506,0.412     c-0.175,0.096-0.344,0.141-0.508,0.141c-0.203,0-0.353-0.065-0.458-0.199c-0.101-0.133-0.153-0.33-0.153-0.596v-3.721h0.874     v3.414c0,0.106,0.019,0.182,0.054,0.229c0.039,0.048,0.098,0.071,0.179,0.071c0.064,0,0.146-0.031,0.245-0.094     c0.099-0.063,0.188-0.142,0.272-0.238v-3.381H16V22.757z M19.176,21.838c0,0.315-0.069,0.556-0.206,0.724     c-0.136,0.168-0.335,0.251-0.595,0.251c-0.172,0-0.324-0.031-0.457-0.096c-0.134-0.065-0.26-0.164-0.374-0.301v0.341h-0.884     v-6.033h0.884v1.943c0.119-0.135,0.243-0.24,0.375-0.309c0.134-0.071,0.268-0.106,0.404-0.106c0.278,0,0.489,0.095,0.634,0.283     c0.147,0.19,0.22,0.468,0.22,0.832V21.838z M22.21,20.641h-1.674v0.837c0,0.235,0.029,0.397,0.085,0.488     c0.059,0.091,0.157,0.135,0.297,0.135c0.145,0,0.246-0.038,0.304-0.115c0.057-0.077,0.088-0.245,0.088-0.508v-0.203h0.9v0.229     c0,0.457-0.109,0.8-0.329,1.032c-0.218,0.23-0.546,0.344-0.982,0.344c-0.392,0-0.701-0.121-0.926-0.367     c-0.225-0.244-0.339-0.58-0.339-1.01v-1.999c0-0.385,0.125-0.701,0.372-0.944c0.247-0.243,0.566-0.364,0.958-0.364     c0.401,0,0.708,0.113,0.924,0.338c0.215,0.225,0.322,0.548,0.322,0.97V20.641z" fill="#FFFFFF"/></g><path d="M20.924,12.916h-0.986v-0.542c-0.179,0.199-0.369,0.352-0.567,0.456c-0.197,0.104-0.387,0.156-0.572,0.156    c-0.23,0-0.4-0.073-0.515-0.219c-0.115-0.146-0.173-0.365-0.173-0.657V8.013h0.984v3.759c0,0.116,0.023,0.2,0.064,0.252    c0.04,0.052,0.108,0.078,0.2,0.078c0.072,0,0.164-0.035,0.275-0.103c0.11-0.069,0.212-0.156,0.303-0.264V8.013h0.986    L20.924,12.916L20.924,12.916z" fill="#FFFFFF"/><path d="M16.923,8.246c-0.261-0.238-0.596-0.356-1.003-0.356c-0.447,0-0.804,0.113-1.069,0.338    c-0.266,0.225-0.399,0.527-0.398,0.908v2.541c0,0.417,0.13,0.748,0.387,0.995c0.259,0.246,0.605,0.369,1.035,0.369    c0.448,0,0.799-0.119,1.056-0.358c0.254-0.239,0.382-0.568,0.382-0.987V9.162C17.313,8.789,17.182,8.483,16.923,8.246z     M16.309,11.768c0,0.13-0.039,0.234-0.118,0.31c-0.079,0.074-0.185,0.112-0.318,0.112c-0.131,0-0.231-0.036-0.301-0.11    c-0.07-0.075-0.106-0.178-0.106-0.312V9.098c0-0.107,0.039-0.194,0.113-0.26c0.076-0.066,0.173-0.098,0.294-0.098    c0.129,0,0.235,0.033,0.315,0.098c0.081,0.066,0.121,0.153,0.121,0.26V11.768z" fill="#FFFFFF"/><polygon fill="#FFFFFF" points="11.769,6.27 10.652,6.27 11.972,10.283 11.972,12.916 13.082,12.916 13.082,10.158 14.372,6.27     13.244,6.27 12.559,8.927 12.49,8.927   "/></g></g></svg>